<?xml version="1.0" standalone="no"?><svg xmlns="http://www.w3.org/2000/svg" viewBox="0 0 1440 320"><path fill="#ff0000" fill-opacity="1" d="M0,288L10,256C20,224,40,160,60,122.7C80,85,100,75,120,90.7C140,107,160,149,180,181.3C200,213,220,235,240,245.3C260,256,280,256,300,234.7C320,213,340,171,360,165.3C380,160,400,192,420,213.3C440,235,460,245,480,245.3C500,245,520,235,540,208C560,181,580,139,600,154.7C620,171,640,245,660,272C680,299,700,277,720,266.7C740,256,760,256,780,224C800,192,820,128,840,96C860,64,880,64,900,74.7C920,85,940,107,960,133.3C980,160,1000,192,1020,176C1040,160,1060,96,1080,80C1100,64,1120,96,1140,138.7C1160,181,1180,235,1200,250.7C1220,267,1240,245,1260,224C1280,203,1300,181,1320,192C1340,203,1360,245,1380,224C1400,203,1420,117,1430,74.7L1440,32L1440,320L1430,320C1420,320,1400,320,1380,320C1360,320,1340,320,1320,320C1300,320,1280,320,1260,320C1240,320,1220,320,1200,320C1180,320,1160,320,1140,320C1120,320,1100,320,1080,320C1060,320,1040,320,1020,320C1000,320,980,320,960,320C940,320,920,320,900,320C880,320,860,320,840,320C820,320,800,320,780,320C760,320,740,320,720,320C700,320,680,320,660,320C640,320,620,320,600,320C580,320,560,320,540,320C520,320,500,320,480,320C460,320,440,320,420,320C400,320,380,320,360,320C340,320,320,320,300,320C280,320,260,320,240,320C220,320,200,320,180,320C160,320,140,320,120,320C100,320,80,320,60,320C40,320,20,320,10,320L0,320Z"></path></svg>