<?xml version="1.0" standalone="no"?>
<!DOCTYPE svg PUBLIC "-//W3C//DTD SVG 20010904//EN"
 "http://www.w3.org/TR/2001/REC-SVG-20010904/DTD/svg10.dtd">
<svg version="1.0" xmlns="http://www.w3.org/2000/svg"
 width="193.000000pt" height="193.000000pt" viewBox="0 0 193.000000 193.000000"
 preserveAspectRatio="xMidYMid meet">
<metadata>
Created by potrace 1.10, written by Peter Selinger 2001-2011
</metadata>
<g transform="translate(0.000000,193.000000) scale(0.100000,-0.100000)"
fill="#000000" stroke="none">
<path d="M0 965 l0 -965 965 0 965 0 0 965 0 965 -497 -1 c-274 -1 -486 -4
-470 -6 15 -2 27 -9 27 -15 0 -6 8 -18 18 -27 10 -9 27 -28 36 -43 10 -15 22
-25 27 -22 5 3 9 -3 9 -12 0 -15 5 -13 28 8 25 25 29 26 60 13 17 -8 32 -21
32 -30 0 -33 30 -27 68 15 31 34 43 41 60 36 12 -4 25 -19 28 -33 9 -34 -16
-204 -32 -224 -8 -8 -17 -29 -20 -47 -6 -29 -5 -31 20 -26 14 2 37 9 51 14 47
18 65 5 65 -49 0 -22 -8 -43 -22 -58 -16 -17 -19 -26 -11 -31 17 -11 33 -58
33 -97 0 -47 19 -85 39 -78 11 3 12 2 4 -4 -7 -5 -9 -14 -4 -22 5 -7 5 -31 1
-54 -8 -41 -7 -88 3 -104 2 -4 1 -33 -4 -63 -18 -125 -15 -115 -66 -198 -23
-35 -49 -105 -52 -135 -1 -5 -5 -6 -10 -3 -4 3 -16 -3 -25 -13 -13 -15 -14
-20 -4 -23 7 -3 -5 -16 -30 -33 -23 -15 -42 -31 -42 -36 0 -4 -19 -21 -42 -38
-24 -16 -58 -43 -75 -59 -18 -17 -41 -33 -51 -36 -10 -4 -40 -26 -65 -51 -26
-25 -47 -41 -47 -36 0 4 -10 6 -23 4 -16 -3 -36 6 -65 30 -23 20 -59 45 -79
58 -21 12 -53 36 -70 53 -18 16 -33 28 -33 25 0 -10 -107 99 -114 116 -4 10
-12 15 -22 11 -8 -3 -12 -2 -9 4 3 5 -5 25 -18 42 -13 18 -27 46 -31 61 -5 21
-11 27 -23 23 -13 -6 -14 -4 -3 10 8 9 10 18 4 22 -5 4 -20 30 -34 57 -13 28
-31 58 -39 68 -13 15 -12 17 6 17 14 0 23 -11 31 -39 7 -21 23 -55 37 -75 14
-20 25 -42 25 -49 1 -62 196 -273 306 -330 16 -9 45 -31 63 -51 48 -50 84 -49
136 4 21 22 44 40 50 40 18 0 167 123 220 182 30 33 70 99 109 177 l60 124 4
148 c2 117 0 153 -12 171 -8 13 -17 48 -21 78 -4 32 -15 64 -26 76 -19 21 -19
21 6 65 25 45 31 74 17 83 -5 3 -39 -2 -76 -11 -37 -8 -69 -13 -71 -11 -3 2 6
36 20 75 46 137 61 252 35 268 -5 3 -32 -20 -61 -50 -29 -30 -55 -55 -58 -55
-3 1 -15 19 -26 42 -11 23 -25 44 -32 46 -6 1 -23 -10 -38 -25 l-26 -28 -67
73 c-37 40 -72 72 -77 72 -6 0 -38 -31 -70 -69 -33 -39 -64 -70 -70 -70 -5 -1
-19 11 -31 26 -27 34 -51 26 -71 -27 -9 -22 -19 -40 -24 -40 -4 0 -30 25 -57
55 -43 49 -51 54 -62 40 -18 -22 -7 -108 29 -230 16 -55 28 -101 26 -103 -2
-2 -34 3 -71 11 -95 22 -100 16 -59 -65 l25 -50 -20 -25 c-13 -17 -20 -41 -20
-69 0 -29 -8 -55 -24 -79 -17 -24 -23 -45 -21 -66 3 -17 4 -50 4 -73 0 -22 0
-65 1 -94 0 -35 -3 -51 -10 -47 -17 11 -8 284 9 295 8 5 16 29 19 57 2 26 8
54 14 60 6 7 8 20 4 28 -3 8 -1 15 4 15 15 0 12 23 -7 50 -21 30 -25 61 -9 82
11 15 19 15 74 3 l62 -12 -2 23 c-1 13 -8 26 -16 29 -7 3 -10 9 -7 15 3 5 -3
45 -14 87 -27 101 -30 144 -11 166 23 27 46 20 81 -23 37 -46 53 -50 70 -17
23 42 60 54 85 26 17 -19 44 -26 44 -11 0 4 13 21 30 38 16 18 26 35 23 38 -4
3 1 6 10 6 9 0 21 9 27 20 11 20 8 20 -450 20 l-460 0 0 -965z m1053 806 c31
-34 42 -40 48 -29 5 8 17 26 28 39 l20 24 27 -59 27 -60 60 64 60 64 -6 -67
c-3 -37 -20 -107 -36 -157 -17 -49 -28 -97 -24 -106 6 -17 32 -16 120 2 l33 6
-11 -30 c-6 -17 -17 -36 -25 -43 -19 -15 -17 -29 6 -59 13 -17 20 -41 20 -73
0 -32 7 -57 21 -76 19 -25 20 -38 16 -172 -4 -131 -7 -149 -31 -199 -83 -172
-105 -205 -193 -288 -48 -46 -111 -96 -138 -112 -28 -16 -62 -41 -75 -55 -46
-49 -55 -50 -105 -4 -25 23 -58 49 -75 58 -102 55 -280 244 -280 296 0 9 -13
35 -29 58 -15 23 -33 58 -39 77 -17 55 -29 148 -21 162 4 6 5 41 2 78 -5 54
-2 72 16 105 11 22 21 58 21 80 0 29 7 48 26 68 23 25 24 30 11 45 -14 16 -47
76 -47 85 0 2 23 -2 52 -9 66 -18 97 -18 104 -1 3 8 -11 67 -31 131 -19 64
-35 135 -35 157 l0 40 61 -63 c60 -62 62 -62 69 -38 4 14 15 40 24 59 17 32
18 32 35 14 10 -10 22 -26 28 -37 9 -16 18 -9 84 64 l74 81 34 -38 c19 -21 52
-58 74 -82z m-901 -625 c-6 -48 -12 -46 -12 5 0 22 4 38 8 35 4 -3 6 -21 4
-40z m171 -16 c3 -11 1 -20 -4 -20 -5 0 -9 9 -9 20 0 11 2 20 4 20 2 0 6 -9 9
-20z m-193 -44 c0 -2 -7 -7 -16 -10 -8 -3 -12 -2 -9 4 6 10 25 14 25 6z m-40
-20 c0 -2 -7 -7 -16 -10 -8 -3 -12 -2 -9 4 6 10 25 14 25 6z m180 -10 c0 -2
-7 -7 -16 -10 -8 -3 -12 -2 -9 4 6 10 25 14 25 6z m78 -189 c-9 -7 -18 -26
-21 -42 -4 -27 -4 -27 -6 7 -1 34 7 46 34 47 6 0 3 -5 -7 -12z m222 -307 c0
-5 -8 -10 -17 -10 -15 0 -16 2 -3 10 19 12 20 12 20 0z m1077 -82 c-3 -8 -6
-5 -6 6 -1 11 2 17 5 13 3 -3 4 -12 1 -19z m-1187 -62 c0 -2 -7 -7 -16 -10 -8
-3 -12 -2 -9 4 6 10 25 14 25 6z m-180 -20 c0 -2 -7 -7 -16 -10 -8 -3 -12 -2
-9 4 6 10 25 14 25 6z m211 -154 c5 8 15 7 34 -6 21 -14 24 -20 14 -32 -6 -8
-10 -16 -8 -18 2 -2 33 -5 69 -7 l65 -4 -3 26 c-3 22 2 27 25 32 15 3 34 0 41
-5 9 -8 20 -7 37 2 13 7 31 10 39 7 8 -3 18 -2 21 3 4 7 13 7 24 1 10 -6 32
-7 50 -5 22 4 31 2 27 -5 -9 -14 26 -1 36 13 4 6 24 6 58 -2 31 -7 58 -9 67
-3 17 9 51 4 71 -12 10 -8 10 -13 0 -24 -10 -12 -9 -17 5 -24 9 -6 17 -17 17
-24 0 -9 10 -16 25 -16 50 -3 60 -5 83 -18 13 -7 29 -10 37 -8 16 7 13 61 -6
83 -13 16 -12 17 11 10 14 -5 40 -10 58 -13 48 -8 50 -23 3 -23 -58 0 -57 -28
2 -32 44 -4 43 -5 -36 -30 -43 -14 -53 -14 -83 -2 -46 19 -104 19 -104 -1 0
-11 12 -15 48 -15 26 0 54 -5 62 -10 15 -10 -63 -14 -187 -10 -48 1 -56 -2
-84 -32 l-31 -33 16 32 c11 22 16 59 16 117 l0 84 -56 -29 c-51 -28 -55 -29
-49 -10 5 17 2 21 -14 21 -19 0 -21 -6 -21 -65 0 -59 2 -65 21 -65 17 0 20 4
14 28 -5 25 -2 30 30 45 20 9 38 17 42 17 10 0 -4 -141 -16 -153 -8 -8 -11 3
-9 45 3 64 -7 83 -21 45 -6 -15 -29 -45 -52 -68 -24 -24 -39 -34 -34 -23 5 10
10 58 13 107 3 75 2 87 -12 87 -14 0 -16 -15 -16 -95 0 -52 -2 -95 -4 -95 -2
0 -18 14 -36 30 -37 35 -61 39 -53 11 3 -11 0 -27 -5 -37 -8 -14 -11 -2 -14
49 -1 37 0 67 4 67 4 0 17 -13 30 -30 14 -19 31 -30 47 -30 l25 0 -33 34 -33
34 33 31 c33 30 34 30 9 31 -14 0 -37 -13 -55 -30 l-32 -31 5 31 c4 25 1 30
-17 30 -19 0 -20 -5 -20 -71 1 -39 7 -87 15 -107 l15 -37 -28 33 c-28 32 -28
32 -53 15 -22 -15 -24 -15 -12 0 8 9 22 19 33 22 10 4 19 13 19 21 0 17 -1 17
-35 4 -14 -5 -24 -7 -22 -2 3 4 -17 7 -44 6 -56 0 -139 16 -139 28 0 5 12 8
28 8 15 1 38 7 52 15 24 14 23 14 -27 15 -53 0 -77 20 -25 20 15 1 41 7 57 15
29 13 27 13 -42 14 l-73 1 0 -65 0 -65 58 -1 c31 -1 64 -1 72 0 12 1 12 -1 -2
-12 -23 -18 -117 -15 -132 5 -16 21 -51 38 -80 38 -14 0 -26 5 -26 10 0 6 12
10 28 10 15 1 38 7 52 15 24 14 23 14 -27 15 -63 0 -70 15 -12 23 73 10 71 27
-4 27 l-67 0 0 -65 0 -65 54 0 c85 0 79 -20 -6 -22 -106 -2 -202 2 -210 10 -4
4 -8 36 -9 71 -3 88 -1 90 178 90 80 0 148 2 150 5 3 2 19 0 36 -5 21 -6 33
-5 38 3z m764 -10 c-3 -3 -11 0 -18 7 -9 10 -8 11 6 5 10 -3 15 -9 12 -12z
m205 6 c8 0 74 2 147 3 95 1 137 -2 148 -11 18 -15 22 -146 4 -134 -6 3 -9 22
-7 40 l4 34 -53 0 c-29 0 -53 5 -53 10 0 6 25 10 55 10 42 0 55 3 55 15 0 12
-14 15 -70 15 l-70 0 0 -40 0 -40 50 0 c28 0 50 -4 50 -10 0 -5 -17 -10 -38
-10 -34 0 -62 -13 -62 -29 0 -4 29 -4 65 -3 42 3 65 0 65 -7 0 -10 -21 -16
-42 -12 -11 1 -114 2 -218 0 -128 -2 -150 0 -150 11 0 6 25 10 55 10 l55 0 0
65 0 65 -72 0 c-39 0 -69 3 -65 6 12 12 73 22 102 16 17 -3 37 -5 45 -4z"/>
<path d="M898 1805 c-21 -24 -38 -47 -38 -52 0 -4 14 8 30 27 16 19 30 30 30
24 0 -5 -13 -23 -30 -39 -16 -16 -30 -25 -30 -20 0 5 -11 -2 -25 -15 -14 -13
-25 -33 -25 -44 0 -20 0 -20 16 2 17 24 43 29 62 10 15 -15 16 -65 1 -74 -6
-3 -8 -17 -5 -29 9 -36 -37 -68 -89 -63 -22 3 -49 8 -60 13 -15 6 -17 5 -9 -4
14 -15 76 -25 106 -17 37 10 62 34 65 64 2 15 6 43 9 62 6 38 -12 63 -51 73
-18 4 -18 5 3 6 12 0 31 -8 43 -20 17 -17 20 -29 15 -57 -3 -21 -7 -50 -8 -67
-7 -74 -138 -101 -196 -40 -15 15 -21 24 -13 20 9 -5 12 -3 9 6 -3 8 -11 13
-17 12 -15 -4 -14 3 6 34 17 25 17 27 -2 37 -11 6 -37 28 -59 49 -21 21 -41
36 -43 34 -4 -5 41 -161 62 -210 18 -44 74 -75 147 -81 29 -2 33 -2 13 3 -16
3 42 6 130 6 88 0 147 -3 130 -6 -20 -5 -16 -5 13 -3 65 6 128 37 147 73 13
25 65 207 65 226 0 3 -14 -10 -31 -30 -18 -20 -45 -43 -60 -51 -16 -8 -29 -20
-29 -27 0 -8 3 -8 8 -2 4 6 21 18 37 28 l30 18 -27 -23 c-20 -17 -25 -29 -21
-49 4 -20 -3 -35 -24 -59 -36 -40 -102 -51 -151 -26 -34 18 -57 50 -46 67 3 6
0 23 -6 39 -7 16 -9 41 -6 55 7 26 61 61 71 46 3 -5 -5 -11 -17 -13 -33 -5
-55 -49 -40 -79 12 -23 12 -23 6 -1 -14 58 31 90 72 51 23 -21 24 -22 18 -4
-10 28 -126 165 -139 165 -5 -1 -27 -20 -47 -45z m114 -40 c11 -18 2 -11 -24
17 -36 40 -47 46 -58 35 -12 -10 -12 -9 -1 6 13 17 15 16 38 -5 14 -13 34 -36
45 -53z m-47 4 c17 -32 8 -59 -20 -59 -28 0 -37 27 -20 59 8 17 18 31 20 31 2
0 12 -14 20 -31z m-300 -103 c17 -12 32 -22 33 -23 2 -1 -1 -10 -8 -20 -9 -14
-10 -14 -6 -1 3 11 -8 25 -35 43 -21 15 -39 30 -39 32 0 5 13 -3 55 -31z m-4
-94 c13 -37 25 -59 29 -52 5 9 9 9 14 1 4 -6 5 -15 2 -20 -4 -5 13 -16 36 -25
30 -11 34 -14 13 -11 -51 10 -79 38 -107 111 -15 38 -27 76 -27 84 0 18 8 1
40 -88z m309 33 c0 -6 -6 -20 -14 -30 -13 -18 -14 -18 -25 3 -8 15 -8 28 0 49
10 27 11 27 25 9 8 -11 14 -25 14 -31z m286 12 c-3 -19 -14 -54 -25 -79 -16
-39 -27 -48 -65 -63 -26 -10 -49 -16 -51 -13 -3 3 13 10 35 17 26 8 37 16 34
25 -3 8 -1 17 5 21 6 3 11 -2 12 -12 1 -25 34 53 43 100 9 46 19 50 12 4z
m-297 -144 c-19 -22 -42 3 -27 30 10 20 11 20 24 2 10 -14 11 -22 3 -32z
m-151 16 c-2 -6 -8 -10 -13 -10 -5 0 -11 4 -13 10 -2 6 4 11 13 11 9 0 15 -5
13 -11z m302 3 c0 -13 -12 -22 -22 -16 -10 6 -1 24 13 24 5 0 9 -4 9 -8z
m-115 -12 c3 -5 1 -10 -4 -10 -6 0 -11 5 -11 10 0 6 2 10 4 10 3 0 8 -4 11
-10z"/>
<path d="M936 1754 c-9 -22 -8 -24 9 -24 8 0 15 6 15 14 0 22 -17 28 -24 10z"/>
<path d="M940 1604 c0 -8 5 -12 10 -9 6 4 8 11 5 16 -9 14 -15 11 -15 -7z"/>
<path d="M727 1708 c-10 -25 -13 -46 -8 -51 5 -5 7 -26 4 -47 -3 -22 -1 -40 6
-44 7 -5 9 3 5 23 -4 19 -1 37 7 47 10 13 10 17 -1 24 -11 7 -11 14 0 40 l13
31 18 -28 c11 -17 19 -22 19 -13 0 18 -27 60 -39 60 -4 0 -15 -19 -24 -42z"/>
<path d="M1117 1727 c-15 -23 -21 -80 -7 -72 4 2 4 -15 0 -38 -5 -23 -6 -45
-4 -49 7 -12 -17 -21 -28 -10 -6 6 -6 12 1 16 6 4 11 19 11 34 0 31 -15 60
-26 49 -4 -3 -1 -13 6 -22 13 -16 6 -65 -10 -65 -16 0 -11 -17 6 -24 9 -4 30
-1 45 6 28 12 29 15 26 74 -1 34 -5 57 -8 52 -13 -21 -17 8 -4 32 l13 25 11
-28 c14 -36 14 -44 -1 -50 -10 -3 -10 -7 1 -20 8 -10 11 -27 7 -42 -4 -14 -2
-25 3 -25 15 0 23 38 12 58 -7 13 -7 22 1 30 8 8 7 22 -7 52 -21 46 -27 49
-48 17z"/>
<path d="M753 1624 c-2 -36 2 -66 8 -69 16 -11 22 2 21 42 -1 20 4 43 10 50 6
7 9 14 7 16 -46 26 -44 28 -46 -39z"/>
<path d="M849 1683 c-1 -4 -1 -15 0 -25 1 -9 -3 -19 -9 -23 -15 -9 -12 -41 5
-55 19 -15 34 -5 17 12 -9 9 -8 16 4 29 18 20 15 60 -3 67 -7 2 -14 0 -14 -5z"/>
<path d="M1017 1684 c-13 -13 -7 -47 10 -66 15 -16 15 -21 3 -28 -8 -5 -11
-12 -7 -16 3 -4 13 -1 22 6 16 13 20 42 8 54 -5 4 -8 17 -8 29 0 21 -16 33
-28 21z"/>
<path d="M812 1648 c-14 -14 -15 -47 -2 -68 6 -9 5 -20 -3 -29 -10 -12 -9 -14
6 -8 10 4 24 7 30 7 6 0 0 11 -13 25 -20 22 -22 28 -11 51 13 30 10 39 -7 22z"/>
<path d="M996 1597 c-5 -17 2 -29 25 -51 28 -25 38 -28 81 -24 45 5 88 29 88
51 0 5 -8 -1 -18 -13 -13 -16 -32 -24 -68 -27 -43 -5 -54 -2 -79 20 -25 21
-27 27 -17 40 8 9 9 18 4 21 -6 3 -12 -4 -16 -17z"/>
<path d="M1191 1604 c0 -11 3 -14 6 -6 3 7 2 16 -1 19 -3 4 -6 -2 -5 -13z"/>
<path d="M665 1457 c7 -17 48 -37 75 -37 31 0 24 14 -12 26 -18 6 -41 14 -51
19 -13 5 -16 3 -12 -8z"/>
<path d="M1190 1455 c-14 -8 -33 -14 -42 -15 -25 0 -22 -20 2 -20 26 0 80 27
80 40 0 13 -10 12 -40 -5z"/>
<path d="M530 1441 c6 -13 38 -39 70 -59 l58 -37 -21 -30 c-12 -16 -16 -25 -8
-21 7 5 -7 -12 -31 -36 -23 -24 -45 -43 -46 -42 -2 1 15 30 38 65 31 47 38 64
28 70 -17 11 -28 11 -28 1 0 -5 -27 -47 -60 -93 -33 -46 -60 -88 -60 -94 0 -5
10 2 21 17 11 14 29 37 40 50 l21 23 -17 -29 c-10 -16 -26 -44 -37 -62 -42
-71 -10 -58 63 25 41 47 80 87 87 87 7 1 17 2 23 3 6 0 9 10 6 21 -3 10 -1 20
3 22 4 2 11 22 15 46 7 44 -2 53 -35 32 -12 -7 -11 -12 5 -31 l20 -22 -30 17
c-16 10 -43 29 -60 43 l-30 25 53 -7 c67 -8 62 10 -5 20 -27 3 -59 9 -72 12
-21 5 -22 4 -11 -16z"/>
<path d="M1290 1448 c-74 -13 -92 -31 -22 -22 28 3 52 5 52 2 0 -6 -87 -68
-95 -68 -4 0 -2 7 6 16 10 13 10 17 -2 25 -28 17 -41 10 -35 -18 3 -16 8 -44
12 -65 4 -27 12 -38 29 -42 13 -3 57 -43 96 -89 40 -45 76 -83 81 -85 18 -8 6
27 -32 88 -26 42 -32 55 -16 38 14 -16 29 -36 35 -45 5 -10 13 -15 17 -10 4 4
0 15 -9 24 -27 31 -87 117 -97 141 -10 24 -18 26 -38 13 -10 -6 -2 -24 34 -77
l48 -69 -50 45 c-28 25 -49 50 -47 56 2 6 -3 17 -11 23 -14 11 -7 19 43 51 33
21 65 48 71 59 12 24 14 24 -70 9z"/>
<path d="M903 1433 c26 -2 67 -2 90 0 23 2 2 3 -48 3 -49 0 -68 -1 -42 -3z"/>
<path d="M830 1419 c0 -14 34 -19 115 -19 81 0 115 5 115 19 0 3 -52 6 -115 6
-63 0 -115 -3 -115 -6z"/>
<path d="M755 1409 c-12 -6 -27 -20 -34 -31 -11 -17 -10 -22 1 -29 19 -12 28
-11 28 4 0 6 4 18 9 26 11 17 42 2 87 -41 51 -48 54 -14 3 38 -44 45 -59 50
-94 33z"/>
<path d="M1042 1376 c-36 -35 -44 -48 -35 -57 9 -9 18 -5 40 18 40 43 70 58
89 43 7 -7 12 -16 9 -20 -8 -13 9 -20 24 -11 27 17 -26 71 -70 71 -6 0 -31
-20 -57 -44z"/>
<path d="M535 1345 c-15 -19 -25 -41 -23 -50 2 -13 10 -9 33 16 17 18 24 29
16 24 -9 -5 -7 1 4 19 26 39 0 32 -30 -9z"/>
<path d="M894 1369 c-4 -8 -3 -10 4 -5 7 4 12 2 12 -3 0 -6 8 -11 17 -11 15 0
14 -2 -3 -15 -15 -11 -16 -15 -4 -15 9 0 5 -6 -10 -15 -22 -13 -23 -14 -5 -15
15 -1 12 -4 -12 -15 -18 -8 -33 -19 -33 -25 0 -6 11 -5 30 5 16 8 41 15 55 15
14 0 39 -7 55 -15 19 -10 30 -11 30 -5 0 6 -15 17 -32 25 -25 11 -28 14 -13
15 18 1 17 2 -5 15 -15 9 -19 15 -10 15 12 0 11 4 -4 15 -11 8 -14 16 -8 16 7
1 17 2 22 3 6 0 10 6 9 11 0 6 -8 9 -17 7 -28 -5 -36 -5 -53 2 -10 4 -20 2
-25 -5z"/>
<path d="M1320 1365 c6 -8 9 -18 6 -23 -3 -5 8 -22 24 -37 26 -25 30 -26 30
-10 0 25 -41 85 -59 85 -11 0 -11 -3 -1 -15z"/>
<path d="M760 1360 c0 -5 7 -10 16 -10 8 0 12 5 9 10 -3 6 -10 10 -16 10 -5 0
-9 -4 -9 -10z"/>
<path d="M1105 1360 c-3 -5 1 -10 9 -10 8 0 18 5 21 10 3 6 -1 10 -9 10 -8 0
-18 -4 -21 -10z"/>
<path d="M785 1310 c27 -28 75 -41 75 -21 0 9 -78 51 -95 51 -5 0 4 -13 20
-30z"/>
<path d="M1073 1319 c-48 -23 -55 -39 -20 -39 13 0 36 14 52 30 34 35 26 38
-32 9z"/>
<path d="M705 1308 c13 -41 46 -68 84 -69 l36 -1 -41 -14 c-49 -18 -59 -44
-35 -95 19 -40 33 -41 111 -7 79 33 83 37 69 54 -6 8 -17 14 -24 14 -24 0 -75
35 -70 48 2 6 -2 12 -9 12 -8 0 -36 18 -62 40 -55 46 -68 49 -59 18z m56 -25
c13 -16 12 -17 -3 -4 -10 7 -18 15 -18 17 0 8 8 3 21 -13z m29 -87 c0 -3 -4
-8 -10 -11 -5 -3 -10 -1 -10 4 0 6 5 11 10 11 6 0 10 -2 10 -4z m30 -21 c0 -8
-4 -15 -10 -15 -5 0 -10 7 -10 15 0 8 5 15 10 15 6 0 10 -7 10 -15z m40 -5 c0
-5 -5 -10 -11 -10 -5 0 -7 5 -4 10 3 6 8 10 11 10 2 0 4 -4 4 -10z m-81 -9 c7
-5 9 -11 5 -14 -5 -3 -15 1 -22 9 -14 16 -5 18 17 5z m121 -1 c0 -5 -4 -10
-10 -10 -5 0 -10 5 -10 10 0 6 5 10 10 10 6 0 10 -4 10 -10z m-70 -20 c0 -5
-2 -10 -4 -10 -3 0 -8 5 -11 10 -3 6 -1 10 4 10 6 0 11 -4 11 -10z m-35 -20
c3 -5 -1 -10 -10 -10 -9 0 -13 5 -10 10 3 6 8 10 10 10 2 0 7 -4 10 -10z"/>
<path d="M1127 1290 c-25 -22 -52 -40 -61 -40 -9 0 -13 -6 -10 -13 3 -9 -13
-22 -46 -38 -27 -13 -50 -30 -50 -37 0 -16 48 -35 69 -27 8 3 12 3 8 -1 -9
-10 62 -46 79 -40 19 7 46 64 42 89 -2 15 -16 27 -48 39 l-45 17 37 0 c28 1
42 8 62 32 14 17 26 34 26 39 0 23 -22 16 -63 -20z m23 7 c0 -2 -10 -12 -22
-23 l-23 -19 19 23 c18 21 26 27 26 19z m-60 -122 c0 -8 -4 -15 -10 -15 -5 0
-10 7 -10 15 0 8 5 15 10 15 6 0 10 -7 10 -15z m-40 -5 c0 -5 -4 -10 -10 -10
-5 0 -10 5 -10 10 0 6 5 10 10 10 6 0 10 -4 10 -10z m-40 -10 c0 -5 -5 -10
-11 -10 -5 0 -7 5 -4 10 3 6 8 10 11 10 2 0 4 -4 4 -10z m110 -4 c0 -3 -4 -8
-10 -11 -5 -3 -10 -1 -10 4 0 6 5 11 10 11 6 0 10 -2 10 -4z m-40 -16 c0 -5
-4 -10 -10 -10 -5 0 -10 5 -10 10 0 6 5 10 10 10 6 0 10 -4 10 -10z m44 -22
c-3 -4 -12 -8 -20 -8 -8 0 -13 4 -10 8 3 5 12 9 20 9 8 0 13 -4 10 -9z"/>
<path d="M605 1198 c-72 -74 -135 -172 -135 -208 0 -31 14 -24 33 16 25 52 87
147 93 141 2 -2 -19 -52 -47 -111 -29 -59 -52 -119 -52 -134 0 -15 11 -44 23
-66 l24 -39 18 64 c11 35 25 85 31 111 9 35 26 62 64 100 46 46 52 58 51 91
-1 21 4 43 9 48 8 8 5 18 -10 35 -11 13 -23 24 -26 24 -4 0 -38 -33 -76 -72z
m92 4 c-10 -10 -14 -22 -11 -25 4 -4 -11 -26 -33 -50 -22 -24 -48 -56 -58 -71
-10 -14 -20 -25 -22 -22 -9 8 79 156 104 176 31 24 44 18 20 -8z m-148 -243
c-11 -19 -18 -25 -14 -14 25 71 29 79 33 64 2 -9 -7 -32 -19 -50z"/>
<path d="M1185 1247 c-16 -17 -18 -27 -10 -44 5 -13 16 -23 24 -23 11 0 10 5
-4 20 -10 11 -16 22 -13 25 12 12 59 -41 97 -110 46 -82 52 -102 19 -59 -31
42 -101 114 -110 114 -4 0 -8 -10 -8 -22 0 -14 20 -42 50 -72 44 -44 53 -61
80 -146 16 -53 30 -104 30 -113 0 -30 14 -18 39 32 27 56 27 55 -40 200 -27
57 -42 98 -35 92 18 -15 96 -146 96 -160 0 -6 5 -11 10 -11 21 0 8 53 -26 108
-32 51 -161 193 -174 191 -3 0 -14 -10 -25 -22z m171 -315 c-6 -5 -36 66 -35
82 0 6 9 -9 20 -33 11 -24 17 -46 15 -49z"/>
<path d="M875 1230 c-3 -6 1 -7 10 -4 9 4 25 -2 39 -15 l22 -21 34 25 34 25
-66 0 c-37 0 -70 -4 -73 -10z"/>
<path d="M715 1112 c-2 -3 0 -11 6 -19 8 -9 8 -13 0 -13 -6 0 -26 -17 -45 -37
-55 -59 -134 -333 -97 -333 6 0 11 15 11 33 0 42 23 125 44 162 10 17 15 22
12 12 -42 -136 -52 -240 -27 -271 19 -23 22 -16 10 27 -8 31 -7 42 9 65 20 28
68 143 84 200 9 32 28 45 28 18 0 -27 -43 -152 -72 -210 -28 -55 -29 -63 -18
-100 12 -43 57 -116 71 -116 5 0 0 15 -11 33 -40 69 -37 108 18 247 31 79 44
140 45 202 0 40 -5 52 -31 76 -17 16 -34 27 -37 24z m11 -91 c-9 -17 -15 -34
-14 -38 3 -9 -51 -143 -63 -157 -19 -21 49 184 72 222 20 32 23 9 5 -27z"/>
<path d="M898 1108 c-53 -19 -32 -33 47 -33 41 0 75 4 75 8 0 5 6 2 13 -5 7
-8 12 -33 10 -60 -1 -27 2 -48 7 -48 14 0 44 90 34 100 -12 12 -123 50 -143
49 -9 0 -28 -5 -43 -11z"/>
<path d="M1144 1093 c-20 -18 -34 -42 -38 -67 -4 -21 -17 -52 -29 -68 -14 -20
-20 -40 -19 -66 4 -55 -17 -175 -34 -192 -19 -19 -140 -18 -159 1 -16 17 -39
172 -30 206 4 16 -1 33 -15 50 l-20 26 6 -64 c3 -35 12 -105 20 -155 15 -89
16 -91 54 -113 41 -23 106 -30 94 -9 -4 7 -3 8 4 4 7 -4 25 0 41 10 25 15 31
28 45 98 9 45 20 112 24 149 8 78 24 88 34 23 3 -25 22 -91 42 -146 43 -120
44 -142 11 -204 -32 -60 -16 -60 24 0 43 66 49 106 22 155 -27 47 -81 205 -81
233 1 18 3 17 16 -8 9 -16 25 -53 35 -84 11 -31 33 -80 50 -110 29 -52 31 -69
13 -116 -5 -12 -2 -15 10 -10 21 8 22 141 1 210 -8 27 -15 56 -15 64 1 27 31
-53 49 -130 14 -56 20 -70 25 -53 4 13 -6 62 -29 130 -19 61 -35 116 -35 124
0 9 -16 30 -35 49 -20 19 -39 47 -43 63 l-7 28 -31 -28z m76 -171 c17 -52 29
-96 27 -98 -6 -7 -67 133 -67 154 0 10 -7 27 -15 38 -8 10 -14 28 -15 39 0 36
36 -33 70 -133z"/>
<path d="M821 1081 c-17 -11 -9 -78 13 -99 12 -13 14 -9 13 24 -1 22 2 49 7
62 8 24 -7 30 -33 13z"/>
<path d="M887 1043 c-4 -3 -7 -15 -7 -26 0 -19 1 -19 18 -4 26 23 71 21 99 -5
24 -23 31 -11 13 23 -9 15 -22 19 -64 19 -29 0 -56 -3 -59 -7z"/>
<path d="M904 989 c-28 -31 -33 -149 -8 -195 25 -46 71 -48 97 -5 26 44 24
160 -4 195 -25 31 -59 34 -85 5z"/>
<path d="M770 820 c0 -17 -9 -59 -21 -93 -32 -95 -7 -200 63 -256 42 -34 45
-20 6 31 -57 75 -63 97 -44 179 18 81 21 155 6 164 -6 4 -10 -7 -10 -25z"/>
<path d="M1108 834 c-12 -12 -9 -62 8 -144 18 -89 15 -105 -37 -181 -22 -33
-36 -59 -32 -59 19 1 63 49 86 95 39 76 41 95 16 156 -12 30 -25 74 -28 97 -3
24 -9 40 -13 36z"/>
<path d="M862 760 c2 -33 8 -46 20 -48 11 -2 15 2 13 15 -2 10 -4 23 -4 29 -1
5 -8 19 -16 30 -14 18 -15 16 -13 -26z"/>
<path d="M1003 755 c-9 -40 -8 -46 6 -43 11 2 17 16 19 46 4 56 -12 54 -25 -3z"/>
<path d="M943 733 c-46 -6 -44 -33 2 -33 28 0 35 4 35 20 0 11 -1 19 -2 18 -2
0 -18 -3 -35 -5z"/>
<path d="M1076 708 c-3 -20 -4 -54 0 -76 5 -32 2 -48 -16 -76 -27 -45 -35 -46
-13 -2 17 36 11 92 -8 80 -6 -3 -8 -16 -5 -29 6 -25 -20 -111 -53 -171 l-22
-39 4 45 c2 25 14 66 26 92 31 69 25 96 -18 69 -8 -5 -27 -5 -44 0 -46 13 -53
-2 -29 -58 11 -26 23 -66 27 -88 4 -22 12 -46 18 -52 5 -7 6 -13 3 -13 -28 0
-76 108 -83 186 -3 35 -9 64 -13 64 -14 0 -20 -48 -10 -77 l10 -28 -20 24
c-17 20 -19 32 -14 91 5 45 3 69 -5 74 -7 5 -11 -4 -11 -28 0 -19 -4 -45 -9
-59 -8 -19 0 -38 40 -108 27 -46 49 -87 49 -92 0 -13 53 -67 65 -67 13 0 65
52 65 64 0 5 22 45 50 90 l49 83 -13 69 c-12 67 -13 68 -20 32z"/>
<path d="M110 155 l0 -65 68 0 68 0 -4 40 c-5 44 -18 50 -62 25 l-25 -14 28
-1 c15 0 27 -4 27 -10 0 -5 -16 -10 -35 -10 -33 0 -35 2 -35 35 0 31 3 35 28
35 15 1 41 7 57 15 29 13 27 13 -42 14 l-73 1 0 -65z"/>
<path d="M1020 155 l0 -65 70 0 70 0 0 40 c0 45 -8 48 -61 25 l-34 -14 33 -1
c17 0 32 -4 32 -10 0 -5 -18 -10 -40 -10 -39 0 -39 1 -38 35 1 32 4 35 32 35
17 1 42 7 56 15 23 13 20 14 -47 15 l-73 0 0 -65z"/>
<path d="M540 146 c0 -10 18 -15 63 -18 34 -3 64 -4 65 -2 2 1 -10 10 -27 18
-38 20 -101 21 -101 2z"/>
<path d="M795 150 c3 -5 8 -10 11 -10 2 0 4 5 4 10 0 6 -5 10 -11 10 -5 0 -7
-4 -4 -10z"/>
<path d="M1477 209 c6 -6 29 -13 52 -16 53 -7 53 -23 1 -23 -29 0 -40 -4 -40
-15 0 -11 11 -15 40 -15 22 0 40 -4 40 -10 0 -5 -8 -10 -19 -10 -28 0 -83 -22
-74 -29 4 -4 34 -5 66 -3 l57 4 0 64 0 64 -67 0 c-48 0 -64 -3 -56 -11z"/>
</g>
</svg>
